<svg width="168" height="300" viewBox="0 0 168 300" fill="none" xmlns="http://www.w3.org/2000/svg">
<path d="M65.575 183.7H101.845L108.405 88.11L110.055 44H57.355L59.015 88.11L65.575 183.7Z" fill="currentColor"/>
<path d="M105.81 202.06C100.01 195.81 92.53 192.7 83.7 192.7C74.87 192.7 67.59 195.83 61.62 202.03C55.82 208.06 53 215.69 53 224.61C53 233.53 55.86 240.66 61.57 246.83L61.6 246.86L61.63 246.89C67.6 253.09 75.04 256.22 83.71 256.22C92.38 256.22 100.04 253.11 105.85 246.84C111.56 240.67 114.41 233.19 114.41 224.62C114.41 216.05 111.6 208.1 105.82 202.08L105.81 202.06Z" fill="#021B28"/>
</svg>
