<svg xmlns="http://www.w3.org/2000/svg" fill="none" viewBox="0 0 300 300"><g fill="#021B28" clip-path="url(#a)"><path d="m164.07 197.31-1.08.47 16.51 33.94 1.01-.47c22.82-10.69 39.94-24.45 51.28-41.31 11.05-16.87 16.56-36.18 16.56-57.92 0-19.94-3.9-35.71-11.83-47.16-7.99-11.26-19.7-16.85-34.95-16.85-11.19 0-20.39 3.69-27.52 11.11-7.14 7.43-10.65 17.35-10.65 29.64 0 11.19 3.69 20.13 11.15 26.69 7.4 6.52 16.43 9.76 27.02 9.76 1.05 0 2.1-.05 3.15-.15-.31 11.9-3.69 21.95-10.08 30.2-6.74 8.71-16.91 16.07-30.57 22.05ZM52.08 197.31l-1.08.47 16.51 33.94 1.01-.47c22.82-10.69 39.95-24.45 51.28-41.31 11.04-16.87 16.55-36.18 16.55-57.92 0-19.94-3.9-35.71-11.83-47.16-7.99-11.26-19.7-16.85-34.95-16.85-11.19 0-20.39 3.69-27.52 11.11-7.14 7.43-10.65 17.35-10.65 29.64 0 11.19 3.69 20.13 11.15 26.69 7.4 6.52 16.43 9.76 27.02 9.76 1.05 0 2.1-.05 3.15-.15-.31 11.9-3.69 21.95-10.08 30.2-6.74 8.71-16.91 16.07-30.57 22.05h.01Z"/></g><defs><clipPath id="a"><path fill="currentColor" d="M248.35 231.72H51V68h197.35z"/></clipPath></defs></svg>