<svg width="186" height="300" viewBox="0 0 186 300" fill="none" xmlns="http://www.w3.org/2000/svg">
<path d="M91.9825 108.771C82.7099 108.771 74.9468 105.506 68.6933 98.9755C62.6553 92.2276 59.6363 84.1738 59.6363 74.8139C59.6363 65.2363 62.6553 57.1824 68.6933 50.6522C74.9468 44.1221 82.7099 40.857 91.9825 40.857C101.471 40.857 109.234 44.1221 115.272 50.6522C121.31 57.1824 124.329 65.2363 124.329 74.8139C124.329 84.1738 121.31 92.2276 115.272 98.9755C109.234 105.506 101.471 108.771 91.9825 108.771ZM66.1056 258.966L55.1078 229.581C68.262 225.227 78.0736 219.35 84.5429 211.949C91.2278 204.766 94.4624 197.147 94.2467 189.093V153.831L110.743 183.543C108.156 185.502 105.244 187.026 102.01 188.114C98.9908 189.202 95.6484 189.747 91.9825 189.747C83.5725 189.747 76.0251 187.134 69.3402 181.91C62.8709 176.469 59.6363 168.85 59.6363 159.055C59.6363 149.912 62.8709 142.512 69.3402 136.852C76.0251 131.193 84.0038 128.363 93.2764 128.363C105.352 128.363 114.517 132.825 120.771 141.75C127.024 150.674 130.151 163.19 130.151 179.298C130.151 198.453 124.76 214.996 113.978 228.928C103.196 243.076 87.2384 253.089 66.1056 258.966Z" fill="#021B28"/>
<path fill-rule="evenodd" clip-rule="evenodd" d="M68.0729 99.5607L68.0632 99.5499C61.8798 92.6395 58.7873 84.3791 58.7873 74.8139C58.7873 65.0364 61.8767 56.7685 68.0726 50.0675L68.0777 50.062L68.0828 50.0566C74.5018 43.3538 82.4877 40 91.9825 40C101.687 40 109.681 43.3501 115.892 50.0675C122.088 56.7685 125.178 65.0364 125.178 74.8139C125.178 84.3791 122.085 92.6395 115.902 99.5499L115.897 99.5551L115.892 99.5602C109.681 106.278 101.687 109.628 91.9825 109.628C82.4877 109.628 74.5018 106.274 68.0828 99.5711L68.0729 99.5607ZM65.5849 260L54 229.045L54.8433 228.766C67.9104 224.442 77.5702 218.631 83.9063 211.382L83.915 211.372L83.9241 211.362C90.08 204.748 93.202 197.824 93.398 190.576C92.9312 190.594 92.4593 190.603 91.9825 190.603C83.3833 190.603 75.6532 187.928 68.8204 182.588L68.8084 182.579L68.7967 182.569C62.1032 176.938 58.7873 169.061 58.7873 159.055C58.7873 149.68 62.1169 142.037 68.7841 136.205L68.7893 136.2L68.7946 136.196C75.6424 130.398 83.8178 127.506 93.2764 127.506C105.591 127.506 115.031 132.074 121.464 141.255C127.856 150.378 131 163.093 131 179.298C131 198.626 125.556 215.359 114.649 229.453C103.73 243.78 87.5971 253.878 66.3311 259.792L65.5849 260ZM113.978 228.928C124.76 214.996 130.151 198.453 130.151 179.298C130.151 163.19 127.024 150.674 120.771 141.75C114.517 132.825 105.352 128.363 93.2764 128.363C84.0038 128.363 76.0251 131.193 69.3402 136.852C62.8709 142.512 59.6363 149.912 59.6363 159.055C59.6363 168.85 62.8709 176.469 69.3402 181.91C76.0251 187.134 83.5725 189.747 91.9825 189.747C92.4631 189.747 92.9381 189.737 93.4076 189.718C93.6925 189.707 93.9754 189.692 94.2563 189.674C94.2581 189.961 94.2555 190.247 94.2484 190.533C94.0633 198.057 90.8281 205.195 84.5429 211.949C78.2065 219.198 68.6637 224.985 55.9143 229.31C55.6469 229.401 55.3781 229.491 55.1078 229.581L66.1056 258.966C87.2384 253.089 103.196 243.076 113.978 228.928ZM68.6933 98.9755C74.9468 105.506 82.7099 108.771 91.9825 108.771C101.471 108.771 109.234 105.506 115.272 98.9755C121.31 92.2276 124.329 84.1738 124.329 74.8139C124.329 65.2363 121.31 57.1824 115.272 50.6522C109.234 44.1221 101.471 40.857 91.9825 40.857C82.7099 40.857 74.9468 44.1221 68.6933 50.6522C62.6553 57.1824 59.6363 65.2363 59.6363 74.8139C59.6363 84.1738 62.6553 92.2276 68.6933 98.9755Z" fill="#021B28"/>
</svg>
