<svg width="300" height="300" viewBox="0 0 300 300" fill="none" xmlns="http://www.w3.org/2000/svg">
<g clip-path="url(#clip0_93_340)">
<path fill-rule="evenodd" clip-rule="evenodd" d="M253.41 132.5C249.18 132.37 246.44 131.58 244.75 130.6C242.68 129.4 241.6 128.17 241.04 127.03C240.23 125.42 239.87 123.86 239.87 122.29C239.87 117.81 240.01 113.98 240.29 110.77C240.74 107.16 241.12 103.55 241.42 99.95C241.9 95.92 242.12 91.2 242.12 85.85C242.12 73.09 239.75 62.4 233.16 55.96C226.89 49.54 217.48 47 206.42 47H184.67V79.25H194.27C195.99 79.25 197.09 79.44 197.75 79.65C198.02 79.74 198.18 79.81 198.25 79.85C198.3 79.98 198.46 80.37 198.62 81.18C198.89 82.52 199.07 84.49 199.07 87.2C199.07 92.79 198.92 98.31 198.63 103.75C198.32 109.43 198.17 115.61 198.17 122.3C198.17 131.66 199.67 139.79 203.91 145.31L203.94 145.36L203.98 145.4C205.32 147.08 206.86 148.54 208.56 149.8C206.84 151.11 205.29 152.63 203.94 154.37C199.64 159.78 198.16 167.9 198.16 177.2C198.16 183.74 198.31 189.92 198.62 195.74C198.91 201.19 199.06 206.7 199.06 212.3C199.06 215.01 198.88 216.98 198.61 218.32C198.45 219.13 198.29 219.52 198.24 219.65C198.17 219.69 198.01 219.77 197.74 219.85C197.08 220.06 195.97 220.25 194.26 220.25H184.66V252.5H206.41C217.49 252.5 226.92 249.96 233.19 243.51C239.71 236.96 242.11 226.34 242.11 213.65C242.11 208.31 241.89 203.67 241.41 199.77C241.11 196.03 240.73 192.42 240.28 188.95C240 185.59 239.86 181.68 239.86 177.21C239.86 174.92 240.65 172.68 242.68 170.33L242.72 170.28L242.76 170.23C243.97 168.76 246.83 167.14 253.33 167.01L259.21 166.89V132.7L253.4 132.52L253.41 132.5Z" fill="#021B28"/>
<path fill-rule="evenodd" clip-rule="evenodd" d="M65.83 55.96C59.4 62.39 57.1 73.08 57.1 85.85C57.1 91.2 57.25 95.87 57.57 99.83V99.96L57.6 100.09C58.04 103.61 58.41 107.13 58.7 110.64V110.78L58.73 110.92C59.14 114.04 59.35 117.82 59.35 122.29C59.35 123.86 58.99 125.42 58.18 127.03C57.61 128.16 56.53 129.4 54.47 130.6C52.78 131.58 50.05 132.36 45.81 132.5L40 132.68V166.87L45.88 166.99C52.38 167.13 55.24 168.75 56.45 170.21L56.49 170.26L56.53 170.31C58.56 172.66 59.35 174.9 59.35 177.19C59.35 181.66 59.13 185.52 58.72 188.82V188.93L58.7 189.04C58.41 192.42 58.04 195.95 57.6 199.64V199.75L57.58 199.86C57.26 203.68 57.11 208.28 57.11 213.63C57.11 226.31 59.43 236.91 65.78 243.45L65.81 243.48L65.84 243.51C72.24 249.91 81.69 252.47 92.81 252.47H114.56V220.22H104.96C103.25 220.22 102.14 220.03 101.48 219.82C101.21 219.73 101.05 219.66 100.98 219.62C100.93 219.49 100.77 219.1 100.61 218.29C100.34 216.95 100.16 214.98 100.16 212.27C100.16 206.68 100.31 201.16 100.6 195.72C100.91 189.89 101.06 183.71 101.06 177.17C101.06 167.87 99.58 159.75 95.28 154.34C93.93 152.6 92.38 151.08 90.66 149.77C92.37 148.51 93.9 147.05 95.24 145.37L95.28 145.33L95.31 145.28C99.55 139.76 101.05 131.63 101.05 122.27C101.05 115.58 100.9 109.4 100.59 103.72C100.3 98.28 100.15 92.76 100.15 87.17C100.15 84.46 100.33 82.49 100.6 81.15C100.76 80.34 100.92 79.95 100.97 79.82C101.04 79.78 101.2 79.7 101.47 79.62C102.13 79.41 103.24 79.22 104.95 79.22H114.55V47H92.8C81.68 47 72.23 49.56 65.83 55.96Z" fill="#021B28"/>
</g>
<defs>
<clipPath id="clip0_93_340">
<rect width="219.22" height="205.5" fill="white" transform="translate(40 47)"/>
</clipPath>
</defs>
</svg>
