<svg width="300" height="300" viewBox="0 0 300 300" fill="none" xmlns="http://www.w3.org/2000/svg">
<g clip-path="url(#clip0_93_337)">
<path d="M135.28 86.41L136.36 85.94L119.85 52L118.84 52.47C96.02 63.16 78.9 76.92 67.56 93.78C56.51 110.65 51 129.96 51 151.7C51 171.64 54.9 187.41 62.83 198.86C70.82 210.12 82.53 215.71 97.78 215.71C108.97 215.71 118.17 212.02 125.3 204.6C132.44 197.17 135.95 187.25 135.95 174.96C135.95 163.77 132.26 154.83 124.8 148.27C117.4 141.75 108.37 138.51 97.78 138.51C96.73 138.51 95.68 138.56 94.63 138.66C94.94 126.76 98.32 116.71 104.71 108.46C111.45 99.75 121.62 92.39 135.28 86.41Z" fill="#021B28"/>
<path d="M247.27 86.41L248.35 85.94L231.84 52L230.83 52.47C208.01 63.16 190.88 76.92 179.55 93.78C168.51 110.65 163 129.96 163 151.7C163 171.64 166.9 187.41 174.83 198.86C182.82 210.12 194.53 215.71 209.78 215.71C220.97 215.71 230.17 212.02 237.3 204.6C244.44 197.17 247.95 187.25 247.95 174.96C247.95 163.77 244.26 154.83 236.8 148.27C229.4 141.75 220.37 138.51 209.78 138.51C208.73 138.51 207.68 138.56 206.63 138.66C206.94 126.76 210.32 116.71 216.71 108.46C223.45 99.75 233.62 92.39 247.28 86.41H247.27Z" fill="#021B28"/>
</g>
<defs>
<clipPath id="clip0_93_337">
<rect width="197.35" height="163.72" fill="white" transform="translate(51 52)"/>
</clipPath>
</defs>
</svg>
